<svg width="26" height="26" viewBox="0 0 26 26" fill="none" xmlns="http://www.w3.org/2000/svg">
<path fill-rule="evenodd" clip-rule="evenodd" d="M12 3C10.1434 3 8.36296 3.7375 7.05021 5.05025C5.73745 6.36301 4.99996 8.14348 4.99996 10C4.99996 13.3527 4.28289 15.4346 3.62206 16.6461C3.29027 17.2544 2.96718 17.6535 2.74275 17.8904C2.63028 18.0091 2.54189 18.0878 2.48868 18.1322C2.46206 18.1544 2.4442 18.168 2.4365 18.1737L2.43365 18.1758C2.07516 18.4221 1.91652 18.8725 2.04286 19.2898C2.17056 19.7115 2.55929 20 2.99996 20H21C21.4406 20 21.8293 19.7115 21.957 19.2898C22.0834 18.8725 21.9248 18.4221 21.5663 18.1758L21.5634 18.1737C21.5557 18.168 21.5379 18.1544 21.5112 18.1322C21.458 18.0878 21.3696 18.0091 21.2572 17.8904C21.0327 17.6535 20.7096 17.2544 20.3779 16.6461C19.717 15.4346 19 13.3527 19 10C19 8.14349 18.2625 6.36301 16.9497 5.05025C15.6369 3.7375 13.8565 3 12 3ZM18.6221 17.6039C18.6982 17.7434 18.7745 17.8753 18.8506 18H5.14928C5.22537 17.8753 5.30175 17.7434 5.37785 17.6039C6.21702 16.0654 6.99996 13.6473 6.99996 10C6.99996 8.67392 7.52674 7.40215 8.46442 6.46447C9.4021 5.52678 10.6739 5 12 5C13.326 5 14.5978 5.52678 15.5355 6.46447C16.4732 7.40215 17 8.67392 17 10C17 13.6473 17.7829 16.0654 18.6221 17.6039ZM11.135 22.4982C10.8579 22.0205 10.2459 21.8579 9.7682 22.135C9.29048 22.4121 9.12785 23.024 9.40498 23.5018C9.66869 23.9564 10.0472 24.3337 10.5026 24.5961C10.9581 24.8584 11.4744 24.9965 12 24.9965C12.5255 24.9965 13.0419 24.8584 13.4973 24.5961C13.9527 24.3337 14.3313 23.9564 14.595 23.5018C14.8721 23.024 14.7095 22.4121 14.2317 22.135C13.754 21.8579 13.1421 22.0205 12.865 22.4982C12.7771 22.6498 12.6509 22.7756 12.4991 22.863C12.3473 22.9504 12.1752 22.9965 12 22.9965C11.8248 22.9965 11.6527 22.9504 11.5009 22.863C11.3491 22.7756 11.2229 22.6498 11.135 22.4982Z" fill="#3A474E"/>
<circle cx="23.5" cy="2.5" r="2.5" transform="rotate(-180 23.5 2.5)" fill="#EA3A4B"/>
</svg>
