<svg width="24" height="24" viewBox="0 0 24 24" fill="none" xmlns="http://www.w3.org/2000/svg">
<path fill-rule="evenodd" clip-rule="evenodd" d="M12 1C10.1434 1 8.36296 1.7375 7.05021 3.05025C5.73745 4.36301 4.99996 6.14348 4.99996 8C4.99996 11.3527 4.28289 13.4346 3.62206 14.6461C3.29027 15.2544 2.96718 15.6535 2.74275 15.8904C2.63028 16.0091 2.54189 16.0878 2.48868 16.1322C2.46206 16.1544 2.4442 16.168 2.4365 16.1737L2.43365 16.1758C2.07516 16.4221 1.91652 16.8725 2.04286 17.2898C2.17056 17.7115 2.55929 18 2.99996 18H21C21.4406 18 21.8293 17.7115 21.957 17.2898C22.0834 16.8725 21.9248 16.4221 21.5663 16.1758L21.5634 16.1737C21.5557 16.168 21.5379 16.1544 21.5112 16.1322C21.458 16.0878 21.3696 16.0091 21.2572 15.8904C21.0327 15.6535 20.7096 15.2544 20.3779 14.6461C19.717 13.4346 19 11.3527 19 8C19 6.14349 18.2625 4.36301 16.9497 3.05025C15.6369 1.7375 13.8565 1 12 1ZM18.6221 15.6039C18.6982 15.7434 18.7745 15.8753 18.8506 16H5.14928C5.22537 15.8753 5.30175 15.7434 5.37785 15.6039C6.21702 14.0654 6.99996 11.6473 6.99996 8C6.99996 6.67392 7.52674 5.40215 8.46442 4.46447C9.4021 3.52678 10.6739 3 12 3C13.326 3 14.5978 3.52678 15.5355 4.46447C16.4732 5.40215 17 6.67392 17 8C17 11.6473 17.7829 14.0654 18.6221 15.6039ZM11.135 20.4982C10.8579 20.0205 10.2459 19.8579 9.7682 20.135C9.29048 20.4121 9.12785 21.024 9.40498 21.5018C9.66869 21.9564 10.0472 22.3337 10.5026 22.5961C10.9581 22.8584 11.4744 22.9965 12 22.9965C12.5255 22.9965 13.0419 22.8584 13.4973 22.5961C13.9527 22.3337 14.3313 21.9564 14.595 21.5018C14.8721 21.024 14.7095 20.4121 14.2317 20.135C13.754 19.8579 13.1421 20.0205 12.865 20.4982C12.7771 20.6498 12.6509 20.7756 12.4991 20.863C12.3473 20.9504 12.1752 20.9965 12 20.9965C11.8248 20.9965 11.6527 20.9504 11.5009 20.863C11.3491 20.7756 11.2229 20.6498 11.135 20.4982Z" fill="#3A474E"/>
</svg>
